<svg width="500" height="120" viewBox="0 0 500 120" fill="none" xmlns="http://www.w3.org/2000/svg">
<g filter="url(#filter0_i_136_3)">
<path d="M45.2755 43.6991C46.3118 42.292 48.5274 42.7974 48.8512 44.5146L50.449 52.9895C50.6254 53.9252 51.4371 54.6068 52.3892 54.6188L480.5 60L51.7473 65.3893C51.1206 65.3972 50.5338 65.6984 50.1621 66.2031L42.7245 76.3009C41.6882 77.708 39.4726 77.2026 39.1488 75.4854L37.4657 66.558C37.3312 65.8444 36.8204 65.2597 36.1313 65.0306L26.7084 61.8979C24.8831 61.291 24.8831 58.709 26.7084 58.1021L36.645 54.7986C37.0372 54.6682 37.3793 54.4195 37.6244 54.0868L45.2755 43.6991Z" fill="url(#paint0_linear_136_3)"/>
</g>
<mask id="path-2-outside-1_136_3" maskUnits="userSpaceOnUse" x="63" y="30" width="374" height="61" fill="black">
<rect fill="white" x="63" y="30" width="374" height="61"/>
<path d="M78.6646 86.8C76.4886 86.8853 74.4833 86.608 72.6486 85.968C70.8566 85.3707 69.3846 84.5387 68.2326 83.472C67.1233 82.4053 66.4193 81.168 66.1206 79.76C65.8219 78.3093 66.0779 76.8373 66.8886 75.344C67.9979 73.552 70.2166 73.0187 73.5446 73.744C76.0619 74.256 77.7899 74.5333 78.7286 74.576C79.7099 74.6187 80.5419 74.4907 81.2246 74.192C84.3393 73.168 86.0886 72.0587 86.4726 70.864C86.7286 69.968 86.1739 68.9227 84.8086 67.728C84.2539 67.216 83.6353 66.704 82.9526 66.192C82.2699 65.68 81.6939 65.168 81.2246 64.656C79.0913 63.0773 77.4059 61.264 76.1686 59.216C74.9739 57.1253 74.4833 54.864 74.6966 52.432C74.9099 50 75.3153 47.9947 75.9126 46.416C76.5099 44.7947 77.2566 43.3653 78.1526 42.128C79.7313 39.952 81.7793 38.1813 84.2966 36.816C87.1979 35.3227 89.5233 34.3627 91.2726 33.936C94.7286 33.168 98.2273 33.104 101.769 33.744C102.963 33.9573 103.987 34.3627 104.841 34.96C105.694 35.5573 106.547 36.176 107.401 36.816C108.894 38.3093 109.257 39.824 108.489 41.36C108.19 42.0427 107.721 42.5973 107.081 43.024C106.441 43.4507 105.758 43.6853 105.033 43.728C105.118 44.88 104.905 45.7333 104.393 46.288C103.411 47.2693 101.705 47.9093 99.2726 48.208C95.7739 47.952 93.4059 48.144 92.1686 48.784C90.7179 49.552 90.1846 51.216 90.5686 53.776C90.6539 54.3307 90.9953 54.9067 91.5926 55.504C92.2326 56.1013 92.9579 56.7413 93.7686 57.424C94.6219 58.1067 95.4966 58.8747 96.3926 59.728C97.3313 60.5813 98.142 61.5627 98.8246 62.672C101.214 66.5973 101.022 71.184 98.2486 76.432C96.2006 80.3573 92.702 83.3013 87.7526 85.264C85.1926 86.288 82.1633 86.8 78.6646 86.8Z"/>
<path d="M125.625 66.704C124.473 70.032 123.3 73.232 122.105 76.304C120.91 79.376 119.908 81.7013 119.097 83.28C118.329 84.9013 117.646 86.0107 117.049 86.608C116.452 87.2053 115.833 87.6107 115.193 87.824C114.596 88.0373 113.977 88.1227 113.337 88.08C112.74 88.0373 112.121 87.9947 111.481 87.952C107.897 87.3973 106.788 84.816 108.153 80.208C109.049 76.5387 109.774 73.552 110.329 71.248C110.884 68.9013 111.332 66.9813 111.673 65.488C112.057 63.952 112.377 62.6933 112.633 61.712C112.889 60.688 113.166 59.6853 113.465 58.704C113.764 57.7227 114.126 56.6133 114.553 55.376C115.022 54.1387 115.62 52.496 116.345 50.448C114.724 50.6613 113.273 50.4907 111.993 49.936C110.116 49.1253 109.348 47.376 109.689 44.688C109.86 43.4507 110.521 42.2987 111.673 41.232C112.27 40.6773 112.974 40.08 113.785 39.44C115.449 38.1173 118.756 36.7093 123.705 35.216C128.825 33.68 133.22 32.9547 136.889 33.04C137.87 32.8693 138.873 32.9973 139.897 33.424C140.964 33.808 141.817 34.3413 142.457 35.024C143.097 35.7067 143.417 36.4533 143.417 37.264C143.46 38.0747 142.948 38.8 141.881 39.44C141.369 39.7813 141.006 40.3573 140.793 41.168C140.58 41.936 140.345 42.768 140.089 43.664C139.833 44.5173 139.449 45.3067 138.937 46.032C138.468 46.7573 137.7 47.184 136.633 47.312C136.078 47.6107 135.289 47.824 134.265 47.952C133.284 48.08 132.622 48.1867 132.281 48.272C131.982 48.3147 131.812 48.4213 131.769 48.592C131.001 50.8533 130.084 53.6053 129.017 56.848C127.95 60.048 126.82 63.3333 125.625 66.704ZM116.985 49.744C116.9 49.744 116.857 49.7653 116.857 49.808C116.857 49.808 116.9 49.808 116.985 49.808V49.744Z"/>
<path d="M170.87 39.696C172.321 40.464 173.238 41.5947 173.622 43.088C172.769 47.8667 172.001 52.624 171.318 57.36C170.635 62.0533 169.974 66 169.334 69.2C168.694 72.3573 168.246 74.7253 167.99 76.304C167.777 77.8827 167.521 79.4613 167.222 81.04L166.838 82.384C166.753 82.8533 166.667 83.28 166.582 83.664C166.497 84.0907 166.411 84.5387 166.326 85.008C165.131 86.3733 163.51 87.056 161.462 87.056C159.286 87.056 157.558 86.5013 156.278 85.392C155.51 84.7947 155.382 83.536 155.894 81.616C156.107 80.848 156.235 79.8667 156.278 78.672C156.363 77.4347 156.449 76.4107 156.534 75.6V75.472C155.254 75.9413 154.102 76.56 153.078 77.328C152.054 78.0533 151.414 78.5227 151.158 78.736C150.902 78.9067 150.561 79.056 150.134 79.184C149.707 79.2693 149.323 79.3333 148.982 79.376C148.171 79.4187 147.617 79.5467 147.318 79.76C144.843 84.1973 142.625 86.672 140.662 87.184C139.425 87.568 138.187 87.6533 136.95 87.44C135.713 87.2693 134.731 86.544 134.006 85.264C132.641 83.984 132.982 80.4853 135.03 74.768C136.139 71.7387 137.718 68.112 139.766 63.888C141.857 59.6213 143.862 55.9093 145.782 52.752C149.921 45.968 154.465 40.2507 159.414 35.6C160.225 35.2587 161.099 34.8747 162.038 34.448C162.977 33.9787 163.894 33.7227 164.79 33.68C165.729 33.6373 166.689 33.744 167.67 34C168.651 34.256 169.483 34.64 170.166 35.152C171.745 36.3467 171.979 37.8613 170.87 39.696ZM157.174 56.528C156.278 59.088 155.382 61.456 154.486 63.632C153.59 65.7653 152.822 67.6427 152.182 69.264L157.238 69.072C157.579 66.3413 157.963 63.632 158.39 60.944C158.817 58.256 159.222 55.568 159.606 52.88L157.174 56.528ZM155.446 69.328C156.043 69.328 156.641 69.2853 157.238 69.2V69.136C156.683 69.1787 156.171 69.2213 155.702 69.264C155.233 69.3067 155.147 69.328 155.446 69.328Z"/>
<path d="M182.803 83.28C182.419 84.9867 181.096 86.032 178.835 86.416C176.744 86.8 174.76 86.5653 172.883 85.712C170.792 84.816 169.875 83.5573 170.131 81.936C169.875 79.4613 171.176 74.0853 174.035 65.808C178.302 53.392 182.568 44.5173 186.835 39.184C187.944 37.8187 188.883 36.944 189.651 36.56C190.462 36.1333 191.379 35.7493 192.403 35.408C193.427 35.0667 194.494 34.7467 195.603 34.448C197.822 33.8507 199.912 33.4453 201.875 33.232C203.88 32.976 205.672 33.2107 207.251 33.936C208.83 34.6187 210.046 35.6427 210.899 37.008C211.795 38.3733 212.35 39.9947 212.563 41.872C212.776 43.7067 212.712 45.648 212.371 47.696C212.03 49.7013 211.411 51.7493 210.515 53.84C209.619 55.888 208.488 57.808 207.123 59.6C204.136 63.5253 200.638 66.064 196.627 67.216L197.267 68.304C197.822 69.1573 198.483 70.096 199.251 71.12C200.062 72.144 200.851 73.1893 201.619 74.256C202.43 75.3227 203.155 76.3893 203.795 77.456C204.435 78.5227 204.904 79.5253 205.203 80.464C205.886 82.5547 205.352 84.0693 203.603 85.008C202.195 85.8613 201.086 86.0747 200.275 85.648C199.934 85.4347 199.592 85.1573 199.251 84.816C198.91 84.5173 198.44 84.2613 197.843 84.048C195.326 84.7733 193.406 84.1333 192.083 82.128C191.272 80.848 190.654 79.6747 190.227 78.608C189.8 77.5413 189.438 76.6453 189.139 75.92C188.371 74.3413 187.496 72.976 186.515 71.824C186.046 72.976 185.512 74.448 184.915 76.24C184.19 78.5013 183.379 80.848 182.483 83.28H182.803ZM195.731 46.032C194.92 47.8667 194.366 49.1467 194.067 49.872C193.47 51.3227 192.808 52.9227 192.083 54.672C191.955 55.6107 191.848 56.272 191.763 56.656L192.659 55.76L193.747 55.248C194.515 54.8213 195.219 54.4373 195.859 54.096C196.499 53.7547 197.075 53.328 197.587 52.816C198.568 51.8347 199.422 50.2347 200.147 48.016C200.147 47.5893 200.211 47.1627 200.339 46.736C200.51 46.3093 200.616 45.8827 200.659 45.456C200.83 44.5173 200.446 43.856 199.507 43.472C198.654 43.3867 197.587 44.0907 196.307 45.584C196.051 45.8827 195.859 46.032 195.731 46.032Z"/>
<path d="M219.477 86.8C217.301 86.8853 215.296 86.608 213.461 85.968C211.669 85.3707 210.197 84.5387 209.045 83.472C207.936 82.4053 207.232 81.168 206.933 79.76C206.634 78.3093 206.89 76.8373 207.701 75.344C208.81 73.552 211.029 73.0187 214.357 73.744C216.874 74.256 218.602 74.5333 219.541 74.576C220.522 74.6187 221.354 74.4907 222.037 74.192C225.152 73.168 226.901 72.0587 227.285 70.864C227.541 69.968 226.986 68.9227 225.621 67.728C225.066 67.216 224.448 66.704 223.765 66.192C223.082 65.68 222.506 65.168 222.037 64.656C219.904 63.0773 218.218 61.264 216.981 59.216C215.786 57.1253 215.296 54.864 215.509 52.432C215.722 50 216.128 47.9947 216.725 46.416C217.322 44.7947 218.069 43.3653 218.965 42.128C220.544 39.952 222.592 38.1813 225.109 36.816C228.01 35.3227 230.336 34.3627 232.085 33.936C235.541 33.168 239.04 33.104 242.581 33.744C243.776 33.9573 244.8 34.3627 245.653 34.96C246.506 35.5573 247.36 36.176 248.213 36.816C249.706 38.3093 250.069 39.824 249.301 41.36C249.002 42.0427 248.533 42.5973 247.893 43.024C247.253 43.4507 246.57 43.6853 245.845 43.728C245.93 44.88 245.717 45.7333 245.205 46.288C244.224 47.2693 242.517 47.9093 240.085 48.208C236.586 47.952 234.218 48.144 232.981 48.784C231.53 49.552 230.997 51.216 231.381 53.776C231.466 54.3307 231.808 54.9067 232.405 55.504C233.045 56.1013 233.77 56.7413 234.581 57.424C235.434 58.1067 236.309 58.8747 237.205 59.728C238.144 60.5813 238.954 61.5627 239.637 62.672C242.026 66.5973 241.834 71.184 239.061 76.432C237.013 80.3573 233.514 83.3013 228.565 85.264C226.005 86.288 222.976 86.8 219.477 86.8Z"/>
<path d="M266.438 66.704C265.286 70.032 264.112 73.232 262.918 76.304C261.723 79.376 260.72 81.7013 259.91 83.28C259.142 84.9013 258.459 86.0107 257.862 86.608C257.264 87.2053 256.646 87.6107 256.006 87.824C255.408 88.0373 254.79 88.1227 254.15 88.08C253.552 88.0373 252.934 87.9947 252.294 87.952C248.71 87.3973 247.6 84.816 248.966 80.208C249.862 76.5387 250.587 73.552 251.142 71.248C251.696 68.9013 252.144 66.9813 252.486 65.488C252.87 63.952 253.19 62.6933 253.446 61.712C253.702 60.688 253.979 59.6853 254.278 58.704C254.576 57.7227 254.939 56.6133 255.366 55.376C255.835 54.1387 256.432 52.496 257.158 50.448C255.536 50.6613 254.086 50.4907 252.806 49.936C250.928 49.1253 250.16 47.376 250.502 44.688C250.672 43.4507 251.334 42.2987 252.486 41.232C253.083 40.6773 253.787 40.08 254.598 39.44C256.262 38.1173 259.568 36.7093 264.518 35.216C269.638 33.68 274.032 32.9547 277.702 33.04C278.683 32.8693 279.686 32.9973 280.71 33.424C281.776 33.808 282.63 34.3413 283.27 35.024C283.91 35.7067 284.23 36.4533 284.23 37.264C284.272 38.0747 283.76 38.8 282.694 39.44C282.182 39.7813 281.819 40.3573 281.606 41.168C281.392 41.936 281.158 42.768 280.902 43.664C280.646 44.5173 280.262 45.3067 279.75 46.032C279.28 46.7573 278.512 47.184 277.446 47.312C276.891 47.6107 276.102 47.824 275.078 47.952C274.096 48.08 273.435 48.1867 273.094 48.272C272.795 48.3147 272.624 48.4213 272.582 48.592C271.814 50.8533 270.896 53.6053 269.83 56.848C268.763 60.048 267.632 63.3333 266.438 66.704ZM257.798 49.744C257.712 49.744 257.67 49.7653 257.67 49.808C257.67 49.808 257.712 49.808 257.798 49.808V49.744Z"/>
<path d="M287.491 83.28C287.107 84.9867 285.784 86.032 283.523 86.416C281.432 86.8 279.448 86.5653 277.571 85.712C275.48 84.816 274.563 83.5573 274.819 81.936C274.563 79.4613 275.864 74.0853 278.723 65.808C282.989 53.392 287.256 44.5173 291.523 39.184C292.632 37.8187 293.571 36.944 294.339 36.56C295.149 36.1333 296.067 35.7493 297.091 35.408C298.115 35.0667 299.181 34.7467 300.291 34.448C302.509 33.8507 304.6 33.4453 306.563 33.232C308.568 32.976 310.36 33.2107 311.939 33.936C313.517 34.6187 314.733 35.6427 315.587 37.008C316.483 38.3733 317.037 39.9947 317.251 41.872C317.464 43.7067 317.4 45.648 317.059 47.696C316.717 49.7013 316.099 51.7493 315.203 53.84C314.307 55.888 313.176 57.808 311.811 59.6C308.824 63.5253 305.325 66.064 301.315 67.216L301.955 68.304C302.509 69.1573 303.171 70.096 303.939 71.12C304.749 72.144 305.539 73.1893 306.307 74.256C307.117 75.3227 307.843 76.3893 308.483 77.456C309.123 78.5227 309.592 79.5253 309.891 80.464C310.573 82.5547 310.04 84.0693 308.291 85.008C306.883 85.8613 305.773 86.0747 304.963 85.648C304.621 85.4347 304.28 85.1573 303.939 84.816C303.597 84.5173 303.128 84.2613 302.531 84.048C300.013 84.7733 298.093 84.1333 296.771 82.128C295.96 80.848 295.341 79.6747 294.915 78.608C294.488 77.5413 294.125 76.6453 293.827 75.92C293.059 74.3413 292.184 72.976 291.203 71.824C290.733 72.976 290.2 74.448 289.603 76.24C288.877 78.5013 288.067 80.848 287.171 83.28H287.491ZM300.419 46.032C299.608 47.8667 299.053 49.1467 298.755 49.872C298.157 51.3227 297.496 52.9227 296.771 54.672C296.643 55.6107 296.536 56.272 296.451 56.656L297.347 55.76L298.435 55.248C299.203 54.8213 299.907 54.4373 300.547 54.096C301.187 53.7547 301.763 53.328 302.275 52.816C303.256 51.8347 304.109 50.2347 304.835 48.016C304.835 47.5893 304.899 47.1627 305.027 46.736C305.197 46.3093 305.304 45.8827 305.347 45.456C305.517 44.5173 305.133 43.856 304.195 43.472C303.341 43.3867 302.275 44.0907 300.995 45.584C300.739 45.8827 300.547 46.032 300.419 46.032Z"/>
<path d="M335.493 36.752V36.88C335.493 36.9227 335.493 36.944 335.493 36.944C335.535 36.944 335.557 36.9653 335.557 37.008V37.136H335.621L336.005 38.16C336.431 39.3973 335.322 43.2373 332.677 49.68C329.861 56.5493 328.559 61.904 328.773 65.744C329.242 68.4747 331.525 66.2773 335.621 59.152C338.863 53.6053 341.999 47.5253 345.029 40.912C345.413 40.016 345.818 39.0987 346.245 38.16C346.671 37.1787 347.205 36.368 347.845 35.728C349.253 34.192 350.959 33.7867 352.965 34.512C353.647 33.7013 354.437 33.1467 355.333 32.848C356.271 32.5493 357.146 32.4853 357.957 32.656C358.81 32.8267 359.535 33.232 360.133 33.872C360.73 34.4693 361.05 35.28 361.093 36.304C361.221 37.1573 360.773 39.184 359.749 42.384C358.767 45.584 357.85 48.5067 356.997 51.152C356.143 53.7973 355.269 56.6773 354.373 59.792C352.197 67.1733 350.469 74.128 349.189 80.656C349.146 82.0213 348.549 83.152 347.397 84.048C346.287 84.944 345.029 85.52 343.621 85.776C342.255 86.0747 340.954 86.032 339.717 85.648C338.223 85.2213 337.434 84.1547 337.349 82.448C337.349 81.9787 337.327 81.5093 337.285 81.04C337.37 82.4907 336.325 83.728 334.149 84.752C333.551 85.0507 332.997 85.328 332.485 85.584C329.498 86.48 326.362 86.288 323.077 85.008C321.541 84.368 320.154 83.5147 318.917 82.448C317.722 81.3387 316.89 80.0373 316.421 78.544C314.927 73.7653 315.205 67.4933 317.253 59.728C318.106 56.4 319.151 53.1573 320.389 50C321.626 46.8427 322.522 44.56 323.077 43.152C323.674 41.744 324.101 40.784 324.357 40.272C324.613 39.7173 324.89 39.184 325.189 38.672C325.914 37.2213 326.533 36.24 327.045 35.728L327.813 35.024C327.898 34.9387 327.983 34.896 328.069 34.896C328.154 34.8533 328.261 34.7893 328.389 34.704C328.73 34.4907 329.093 34.3413 329.477 34.256L330.373 34.064H330.757C331.994 33.8933 333.061 34.1493 333.957 34.832C333.957 34.8747 333.999 34.896 334.085 34.896L334.597 35.344L334.789 35.536L334.981 35.792C334.981 35.8347 334.981 35.856 334.981 35.856C335.023 35.856 335.045 35.8773 335.045 35.92L335.109 35.984V36.112C335.151 36.112 335.173 36.1333 335.173 36.176V36.24C335.215 36.2827 335.258 36.304 335.301 36.304V36.368C335.301 36.4107 335.301 36.432 335.301 36.432C335.343 36.432 335.365 36.4533 335.365 36.496C335.365 36.496 335.386 36.5173 335.429 36.56V36.624C335.429 36.6667 335.45 36.7093 335.493 36.752ZM337.221 79.184C337.178 79.2267 337.157 79.3973 337.157 79.696C337.157 79.568 337.178 79.4827 337.221 79.44V79.184Z"/>
<path d="M386.089 51.216C386.089 49.936 385.641 49.296 384.745 49.296C384.404 49.296 383.998 49.3813 383.529 49.552C383.06 49.7227 382.612 49.872 382.185 50C380.606 50.8533 379.369 51.792 378.473 52.816C377.62 53.7973 376.745 54.9067 375.849 56.144C374.953 57.3813 374.185 58.704 373.545 60.112C372.905 61.52 372.414 62.8427 372.073 64.08C370.836 68.6453 371.305 71.7173 373.481 73.296C374.377 73.936 375.316 74.256 376.297 74.256C377.321 74.2133 378.132 74 378.729 73.616C379.369 73.232 379.988 72.8693 380.585 72.528C381.182 72.1867 381.865 71.952 382.633 71.824C383.444 71.6533 384.425 71.76 385.577 72.144C386.772 72.4853 387.412 72.9547 387.497 73.552C387.582 74.1493 387.582 74.768 387.497 75.408C387.412 76.048 387.39 76.624 387.433 77.136C387.518 77.648 387.988 77.968 388.841 78.096C389.652 79.12 389.14 80.3573 387.305 81.808C386.836 82.192 386.388 82.5547 385.961 82.896C382.292 85.2427 378.388 86.544 374.249 86.8C371.646 86.9707 368.873 86.5013 365.929 85.392C361.534 83.728 359.06 79.9947 358.505 74.192C357.78 68.816 358.462 63.248 360.553 57.488C362.302 52.624 364.948 48.1227 368.489 43.984C371.689 40.1867 374.846 37.712 377.961 36.56C381.673 34.64 385.684 33.8933 389.993 34.32C394.558 34.9173 397.545 36.8587 398.953 40.144C400.361 43.4293 400.126 47.376 398.249 51.984C397.609 53.6053 396.393 54.8853 394.601 55.824C393.065 56.6773 391.401 57.104 389.609 57.104C387.817 57.104 386.665 56.5493 386.153 55.44C385.641 54.288 385.62 52.88 386.089 51.216Z"/>
<path d="M405.561 37.648C406.371 35.6853 407.523 34.9813 409.017 35.536C409.443 34.5973 409.806 34 410.105 33.744C410.446 33.488 410.787 33.296 411.129 33.168C411.47 32.9973 411.833 32.8267 412.217 32.656C412.601 32.4853 413.198 32.336 414.009 32.208C414.819 32.08 415.715 32.016 416.697 32.016C417.678 31.9733 418.659 32.016 419.641 32.144C420.665 32.272 421.518 32.5493 422.201 32.976C423.865 33.9573 424.227 35.536 423.289 37.712C423.374 37.6693 423.353 37.712 423.225 37.84L422.649 38.928L422.201 39.504C421.987 39.7173 421.326 41.0187 420.217 43.408C419.321 45.1147 418.403 46.8 417.465 48.464C415.929 51.3227 414.99 53.1573 414.649 53.968C416.142 53.1573 417.87 51.984 419.833 50.448C423.545 47.5893 425.913 45.8827 426.937 45.328C427.961 44.7733 428.665 44.432 429.049 44.304C429.475 44.176 429.881 44.1547 430.265 44.24C430.649 44.2827 431.054 44.3893 431.481 44.56L433.081 45.2C434.105 45.5413 434.659 46.7787 434.745 48.912C434.787 51.0027 434.361 52.5813 433.465 53.648C429.582 58.6827 425.209 62.0533 420.345 63.76C418.851 64.3147 417.315 64.784 415.737 65.168C417.998 65.424 420.153 66.9173 422.201 69.648C423.865 71.8667 425.059 74.1493 425.785 76.496C426.553 78.8427 427.15 80.592 427.577 81.744C428.003 82.8533 428.174 83.7067 428.089 84.304C428.046 84.944 427.683 85.4133 427.001 85.712C426.361 86.0533 425.251 86.3733 423.673 86.672C422.947 86.8 421.454 85.9467 419.193 84.112C418.211 83.3013 417.166 82.4267 416.057 81.488C414.947 80.5067 413.838 79.5893 412.729 78.736C410.169 76.7307 408.377 75.6853 407.353 75.6C407.267 75.6 407.097 75.5573 406.841 75.472L405.689 78.352C405.091 79.76 404.473 81.2533 403.833 82.832C403.235 84.368 402.51 85.7547 401.657 86.992C400.334 87.888 398.798 88.2507 397.049 88.08C395.043 87.8667 393.721 87.056 393.081 85.648C392.654 84.3253 393.358 80.4427 395.193 74C396.43 69.4773 397.497 65.5093 398.393 62.096C399.289 58.6827 400.057 55.8667 400.697 53.648C401.337 51.3867 401.806 49.6373 402.105 48.4C402.403 47.12 402.702 45.8827 403.001 44.688C403.726 41.9147 404.579 39.568 405.561 37.648Z"/>
</mask>
<g filter="url(#filter1_i_136_3)">
<path d="M78.6646 86.8C76.4886 86.8853 74.4833 86.608 72.6486 85.968C70.8566 85.3707 69.3846 84.5387 68.2326 83.472C67.1233 82.4053 66.4193 81.168 66.1206 79.76C65.8219 78.3093 66.0779 76.8373 66.8886 75.344C67.9979 73.552 70.2166 73.0187 73.5446 73.744C76.0619 74.256 77.7899 74.5333 78.7286 74.576C79.7099 74.6187 80.5419 74.4907 81.2246 74.192C84.3393 73.168 86.0886 72.0587 86.4726 70.864C86.7286 69.968 86.1739 68.9227 84.8086 67.728C84.2539 67.216 83.6353 66.704 82.9526 66.192C82.2699 65.68 81.6939 65.168 81.2246 64.656C79.0913 63.0773 77.4059 61.264 76.1686 59.216C74.9739 57.1253 74.4833 54.864 74.6966 52.432C74.9099 50 75.3153 47.9947 75.9126 46.416C76.5099 44.7947 77.2566 43.3653 78.1526 42.128C79.7313 39.952 81.7793 38.1813 84.2966 36.816C87.1979 35.3227 89.5233 34.3627 91.2726 33.936C94.7286 33.168 98.2273 33.104 101.769 33.744C102.963 33.9573 103.987 34.3627 104.841 34.96C105.694 35.5573 106.547 36.176 107.401 36.816C108.894 38.3093 109.257 39.824 108.489 41.36C108.19 42.0427 107.721 42.5973 107.081 43.024C106.441 43.4507 105.758 43.6853 105.033 43.728C105.118 44.88 104.905 45.7333 104.393 46.288C103.411 47.2693 101.705 47.9093 99.2726 48.208C95.7739 47.952 93.4059 48.144 92.1686 48.784C90.7179 49.552 90.1846 51.216 90.5686 53.776C90.6539 54.3307 90.9953 54.9067 91.5926 55.504C92.2326 56.1013 92.9579 56.7413 93.7686 57.424C94.6219 58.1067 95.4966 58.8747 96.3926 59.728C97.3313 60.5813 98.142 61.5627 98.8246 62.672C101.214 66.5973 101.022 71.184 98.2486 76.432C96.2006 80.3573 92.702 83.3013 87.7526 85.264C85.1926 86.288 82.1633 86.8 78.6646 86.8Z" fill="#212121"/>
<path d="M125.625 66.704C124.473 70.032 123.3 73.232 122.105 76.304C120.91 79.376 119.908 81.7013 119.097 83.28C118.329 84.9013 117.646 86.0107 117.049 86.608C116.452 87.2053 115.833 87.6107 115.193 87.824C114.596 88.0373 113.977 88.1227 113.337 88.08C112.74 88.0373 112.121 87.9947 111.481 87.952C107.897 87.3973 106.788 84.816 108.153 80.208C109.049 76.5387 109.774 73.552 110.329 71.248C110.884 68.9013 111.332 66.9813 111.673 65.488C112.057 63.952 112.377 62.6933 112.633 61.712C112.889 60.688 113.166 59.6853 113.465 58.704C113.764 57.7227 114.126 56.6133 114.553 55.376C115.022 54.1387 115.62 52.496 116.345 50.448C114.724 50.6613 113.273 50.4907 111.993 49.936C110.116 49.1253 109.348 47.376 109.689 44.688C109.86 43.4507 110.521 42.2987 111.673 41.232C112.27 40.6773 112.974 40.08 113.785 39.44C115.449 38.1173 118.756 36.7093 123.705 35.216C128.825 33.68 133.22 32.9547 136.889 33.04C137.87 32.8693 138.873 32.9973 139.897 33.424C140.964 33.808 141.817 34.3413 142.457 35.024C143.097 35.7067 143.417 36.4533 143.417 37.264C143.46 38.0747 142.948 38.8 141.881 39.44C141.369 39.7813 141.006 40.3573 140.793 41.168C140.58 41.936 140.345 42.768 140.089 43.664C139.833 44.5173 139.449 45.3067 138.937 46.032C138.468 46.7573 137.7 47.184 136.633 47.312C136.078 47.6107 135.289 47.824 134.265 47.952C133.284 48.08 132.622 48.1867 132.281 48.272C131.982 48.3147 131.812 48.4213 131.769 48.592C131.001 50.8533 130.084 53.6053 129.017 56.848C127.95 60.048 126.82 63.3333 125.625 66.704ZM116.985 49.744C116.9 49.744 116.857 49.7653 116.857 49.808C116.857 49.808 116.9 49.808 116.985 49.808V49.744Z" fill="#212121"/>
<path d="M170.87 39.696C172.321 40.464 173.238 41.5947 173.622 43.088C172.769 47.8667 172.001 52.624 171.318 57.36C170.635 62.0533 169.974 66 169.334 69.2C168.694 72.3573 168.246 74.7253 167.99 76.304C167.777 77.8827 167.521 79.4613 167.222 81.04L166.838 82.384C166.753 82.8533 166.667 83.28 166.582 83.664C166.497 84.0907 166.411 84.5387 166.326 85.008C165.131 86.3733 163.51 87.056 161.462 87.056C159.286 87.056 157.558 86.5013 156.278 85.392C155.51 84.7947 155.382 83.536 155.894 81.616C156.107 80.848 156.235 79.8667 156.278 78.672C156.363 77.4347 156.449 76.4107 156.534 75.6V75.472C155.254 75.9413 154.102 76.56 153.078 77.328C152.054 78.0533 151.414 78.5227 151.158 78.736C150.902 78.9067 150.561 79.056 150.134 79.184C149.707 79.2693 149.323 79.3333 148.982 79.376C148.171 79.4187 147.617 79.5467 147.318 79.76C144.843 84.1973 142.625 86.672 140.662 87.184C139.425 87.568 138.187 87.6533 136.95 87.44C135.713 87.2693 134.731 86.544 134.006 85.264C132.641 83.984 132.982 80.4853 135.03 74.768C136.139 71.7387 137.718 68.112 139.766 63.888C141.857 59.6213 143.862 55.9093 145.782 52.752C149.921 45.968 154.465 40.2507 159.414 35.6C160.225 35.2587 161.099 34.8747 162.038 34.448C162.977 33.9787 163.894 33.7227 164.79 33.68C165.729 33.6373 166.689 33.744 167.67 34C168.651 34.256 169.483 34.64 170.166 35.152C171.745 36.3467 171.979 37.8613 170.87 39.696ZM157.174 56.528C156.278 59.088 155.382 61.456 154.486 63.632C153.59 65.7653 152.822 67.6427 152.182 69.264L157.238 69.072C157.579 66.3413 157.963 63.632 158.39 60.944C158.817 58.256 159.222 55.568 159.606 52.88L157.174 56.528ZM155.446 69.328C156.043 69.328 156.641 69.2853 157.238 69.2V69.136C156.683 69.1787 156.171 69.2213 155.702 69.264C155.233 69.3067 155.147 69.328 155.446 69.328Z" fill="#212121"/>
<path d="M182.803 83.28C182.419 84.9867 181.096 86.032 178.835 86.416C176.744 86.8 174.76 86.5653 172.883 85.712C170.792 84.816 169.875 83.5573 170.131 81.936C169.875 79.4613 171.176 74.0853 174.035 65.808C178.302 53.392 182.568 44.5173 186.835 39.184C187.944 37.8187 188.883 36.944 189.651 36.56C190.462 36.1333 191.379 35.7493 192.403 35.408C193.427 35.0667 194.494 34.7467 195.603 34.448C197.822 33.8507 199.912 33.4453 201.875 33.232C203.88 32.976 205.672 33.2107 207.251 33.936C208.83 34.6187 210.046 35.6427 210.899 37.008C211.795 38.3733 212.35 39.9947 212.563 41.872C212.776 43.7067 212.712 45.648 212.371 47.696C212.03 49.7013 211.411 51.7493 210.515 53.84C209.619 55.888 208.488 57.808 207.123 59.6C204.136 63.5253 200.638 66.064 196.627 67.216L197.267 68.304C197.822 69.1573 198.483 70.096 199.251 71.12C200.062 72.144 200.851 73.1893 201.619 74.256C202.43 75.3227 203.155 76.3893 203.795 77.456C204.435 78.5227 204.904 79.5253 205.203 80.464C205.886 82.5547 205.352 84.0693 203.603 85.008C202.195 85.8613 201.086 86.0747 200.275 85.648C199.934 85.4347 199.592 85.1573 199.251 84.816C198.91 84.5173 198.44 84.2613 197.843 84.048C195.326 84.7733 193.406 84.1333 192.083 82.128C191.272 80.848 190.654 79.6747 190.227 78.608C189.8 77.5413 189.438 76.6453 189.139 75.92C188.371 74.3413 187.496 72.976 186.515 71.824C186.046 72.976 185.512 74.448 184.915 76.24C184.19 78.5013 183.379 80.848 182.483 83.28H182.803ZM195.731 46.032C194.92 47.8667 194.366 49.1467 194.067 49.872C193.47 51.3227 192.808 52.9227 192.083 54.672C191.955 55.6107 191.848 56.272 191.763 56.656L192.659 55.76L193.747 55.248C194.515 54.8213 195.219 54.4373 195.859 54.096C196.499 53.7547 197.075 53.328 197.587 52.816C198.568 51.8347 199.422 50.2347 200.147 48.016C200.147 47.5893 200.211 47.1627 200.339 46.736C200.51 46.3093 200.616 45.8827 200.659 45.456C200.83 44.5173 200.446 43.856 199.507 43.472C198.654 43.3867 197.587 44.0907 196.307 45.584C196.051 45.8827 195.859 46.032 195.731 46.032Z" fill="#212121"/>
<path d="M219.477 86.8C217.301 86.8853 215.296 86.608 213.461 85.968C211.669 85.3707 210.197 84.5387 209.045 83.472C207.936 82.4053 207.232 81.168 206.933 79.76C206.634 78.3093 206.89 76.8373 207.701 75.344C208.81 73.552 211.029 73.0187 214.357 73.744C216.874 74.256 218.602 74.5333 219.541 74.576C220.522 74.6187 221.354 74.4907 222.037 74.192C225.152 73.168 226.901 72.0587 227.285 70.864C227.541 69.968 226.986 68.9227 225.621 67.728C225.066 67.216 224.448 66.704 223.765 66.192C223.082 65.68 222.506 65.168 222.037 64.656C219.904 63.0773 218.218 61.264 216.981 59.216C215.786 57.1253 215.296 54.864 215.509 52.432C215.722 50 216.128 47.9947 216.725 46.416C217.322 44.7947 218.069 43.3653 218.965 42.128C220.544 39.952 222.592 38.1813 225.109 36.816C228.01 35.3227 230.336 34.3627 232.085 33.936C235.541 33.168 239.04 33.104 242.581 33.744C243.776 33.9573 244.8 34.3627 245.653 34.96C246.506 35.5573 247.36 36.176 248.213 36.816C249.706 38.3093 250.069 39.824 249.301 41.36C249.002 42.0427 248.533 42.5973 247.893 43.024C247.253 43.4507 246.57 43.6853 245.845 43.728C245.93 44.88 245.717 45.7333 245.205 46.288C244.224 47.2693 242.517 47.9093 240.085 48.208C236.586 47.952 234.218 48.144 232.981 48.784C231.53 49.552 230.997 51.216 231.381 53.776C231.466 54.3307 231.808 54.9067 232.405 55.504C233.045 56.1013 233.77 56.7413 234.581 57.424C235.434 58.1067 236.309 58.8747 237.205 59.728C238.144 60.5813 238.954 61.5627 239.637 62.672C242.026 66.5973 241.834 71.184 239.061 76.432C237.013 80.3573 233.514 83.3013 228.565 85.264C226.005 86.288 222.976 86.8 219.477 86.8Z" fill="#212121"/>
<path d="M266.438 66.704C265.286 70.032 264.112 73.232 262.918 76.304C261.723 79.376 260.72 81.7013 259.91 83.28C259.142 84.9013 258.459 86.0107 257.862 86.608C257.264 87.2053 256.646 87.6107 256.006 87.824C255.408 88.0373 254.79 88.1227 254.15 88.08C253.552 88.0373 252.934 87.9947 252.294 87.952C248.71 87.3973 247.6 84.816 248.966 80.208C249.862 76.5387 250.587 73.552 251.142 71.248C251.696 68.9013 252.144 66.9813 252.486 65.488C252.87 63.952 253.19 62.6933 253.446 61.712C253.702 60.688 253.979 59.6853 254.278 58.704C254.576 57.7227 254.939 56.6133 255.366 55.376C255.835 54.1387 256.432 52.496 257.158 50.448C255.536 50.6613 254.086 50.4907 252.806 49.936C250.928 49.1253 250.16 47.376 250.502 44.688C250.672 43.4507 251.334 42.2987 252.486 41.232C253.083 40.6773 253.787 40.08 254.598 39.44C256.262 38.1173 259.568 36.7093 264.518 35.216C269.638 33.68 274.032 32.9547 277.702 33.04C278.683 32.8693 279.686 32.9973 280.71 33.424C281.776 33.808 282.63 34.3413 283.27 35.024C283.91 35.7067 284.23 36.4533 284.23 37.264C284.272 38.0747 283.76 38.8 282.694 39.44C282.182 39.7813 281.819 40.3573 281.606 41.168C281.392 41.936 281.158 42.768 280.902 43.664C280.646 44.5173 280.262 45.3067 279.75 46.032C279.28 46.7573 278.512 47.184 277.446 47.312C276.891 47.6107 276.102 47.824 275.078 47.952C274.096 48.08 273.435 48.1867 273.094 48.272C272.795 48.3147 272.624 48.4213 272.582 48.592C271.814 50.8533 270.896 53.6053 269.83 56.848C268.763 60.048 267.632 63.3333 266.438 66.704ZM257.798 49.744C257.712 49.744 257.67 49.7653 257.67 49.808C257.67 49.808 257.712 49.808 257.798 49.808V49.744Z" fill="#212121"/>
<path d="M287.491 83.28C287.107 84.9867 285.784 86.032 283.523 86.416C281.432 86.8 279.448 86.5653 277.571 85.712C275.48 84.816 274.563 83.5573 274.819 81.936C274.563 79.4613 275.864 74.0853 278.723 65.808C282.989 53.392 287.256 44.5173 291.523 39.184C292.632 37.8187 293.571 36.944 294.339 36.56C295.149 36.1333 296.067 35.7493 297.091 35.408C298.115 35.0667 299.181 34.7467 300.291 34.448C302.509 33.8507 304.6 33.4453 306.563 33.232C308.568 32.976 310.36 33.2107 311.939 33.936C313.517 34.6187 314.733 35.6427 315.587 37.008C316.483 38.3733 317.037 39.9947 317.251 41.872C317.464 43.7067 317.4 45.648 317.059 47.696C316.717 49.7013 316.099 51.7493 315.203 53.84C314.307 55.888 313.176 57.808 311.811 59.6C308.824 63.5253 305.325 66.064 301.315 67.216L301.955 68.304C302.509 69.1573 303.171 70.096 303.939 71.12C304.749 72.144 305.539 73.1893 306.307 74.256C307.117 75.3227 307.843 76.3893 308.483 77.456C309.123 78.5227 309.592 79.5253 309.891 80.464C310.573 82.5547 310.04 84.0693 308.291 85.008C306.883 85.8613 305.773 86.0747 304.963 85.648C304.621 85.4347 304.28 85.1573 303.939 84.816C303.597 84.5173 303.128 84.2613 302.531 84.048C300.013 84.7733 298.093 84.1333 296.771 82.128C295.96 80.848 295.341 79.6747 294.915 78.608C294.488 77.5413 294.125 76.6453 293.827 75.92C293.059 74.3413 292.184 72.976 291.203 71.824C290.733 72.976 290.2 74.448 289.603 76.24C288.877 78.5013 288.067 80.848 287.171 83.28H287.491ZM300.419 46.032C299.608 47.8667 299.053 49.1467 298.755 49.872C298.157 51.3227 297.496 52.9227 296.771 54.672C296.643 55.6107 296.536 56.272 296.451 56.656L297.347 55.76L298.435 55.248C299.203 54.8213 299.907 54.4373 300.547 54.096C301.187 53.7547 301.763 53.328 302.275 52.816C303.256 51.8347 304.109 50.2347 304.835 48.016C304.835 47.5893 304.899 47.1627 305.027 46.736C305.197 46.3093 305.304 45.8827 305.347 45.456C305.517 44.5173 305.133 43.856 304.195 43.472C303.341 43.3867 302.275 44.0907 300.995 45.584C300.739 45.8827 300.547 46.032 300.419 46.032Z" fill="#212121"/>
<path d="M335.493 36.752V36.88C335.493 36.9227 335.493 36.944 335.493 36.944C335.535 36.944 335.557 36.9653 335.557 37.008V37.136H335.621L336.005 38.16C336.431 39.3973 335.322 43.2373 332.677 49.68C329.861 56.5493 328.559 61.904 328.773 65.744C329.242 68.4747 331.525 66.2773 335.621 59.152C338.863 53.6053 341.999 47.5253 345.029 40.912C345.413 40.016 345.818 39.0987 346.245 38.16C346.671 37.1787 347.205 36.368 347.845 35.728C349.253 34.192 350.959 33.7867 352.965 34.512C353.647 33.7013 354.437 33.1467 355.333 32.848C356.271 32.5493 357.146 32.4853 357.957 32.656C358.81 32.8267 359.535 33.232 360.133 33.872C360.73 34.4693 361.05 35.28 361.093 36.304C361.221 37.1573 360.773 39.184 359.749 42.384C358.767 45.584 357.85 48.5067 356.997 51.152C356.143 53.7973 355.269 56.6773 354.373 59.792C352.197 67.1733 350.469 74.128 349.189 80.656C349.146 82.0213 348.549 83.152 347.397 84.048C346.287 84.944 345.029 85.52 343.621 85.776C342.255 86.0747 340.954 86.032 339.717 85.648C338.223 85.2213 337.434 84.1547 337.349 82.448C337.349 81.9787 337.327 81.5093 337.285 81.04C337.37 82.4907 336.325 83.728 334.149 84.752C333.551 85.0507 332.997 85.328 332.485 85.584C329.498 86.48 326.362 86.288 323.077 85.008C321.541 84.368 320.154 83.5147 318.917 82.448C317.722 81.3387 316.89 80.0373 316.421 78.544C314.927 73.7653 315.205 67.4933 317.253 59.728C318.106 56.4 319.151 53.1573 320.389 50C321.626 46.8427 322.522 44.56 323.077 43.152C323.674 41.744 324.101 40.784 324.357 40.272C324.613 39.7173 324.89 39.184 325.189 38.672C325.914 37.2213 326.533 36.24 327.045 35.728L327.813 35.024C327.898 34.9387 327.983 34.896 328.069 34.896C328.154 34.8533 328.261 34.7893 328.389 34.704C328.73 34.4907 329.093 34.3413 329.477 34.256L330.373 34.064H330.757C331.994 33.8933 333.061 34.1493 333.957 34.832C333.957 34.8747 333.999 34.896 334.085 34.896L334.597 35.344L334.789 35.536L334.981 35.792C334.981 35.8347 334.981 35.856 334.981 35.856C335.023 35.856 335.045 35.8773 335.045 35.92L335.109 35.984V36.112C335.151 36.112 335.173 36.1333 335.173 36.176V36.24C335.215 36.2827 335.258 36.304 335.301 36.304V36.368C335.301 36.4107 335.301 36.432 335.301 36.432C335.343 36.432 335.365 36.4533 335.365 36.496C335.365 36.496 335.386 36.5173 335.429 36.56V36.624C335.429 36.6667 335.45 36.7093 335.493 36.752ZM337.221 79.184C337.178 79.2267 337.157 79.3973 337.157 79.696C337.157 79.568 337.178 79.4827 337.221 79.44V79.184Z" fill="#212121"/>
<path d="M386.089 51.216C386.089 49.936 385.641 49.296 384.745 49.296C384.404 49.296 383.998 49.3813 383.529 49.552C383.06 49.7227 382.612 49.872 382.185 50C380.606 50.8533 379.369 51.792 378.473 52.816C377.62 53.7973 376.745 54.9067 375.849 56.144C374.953 57.3813 374.185 58.704 373.545 60.112C372.905 61.52 372.414 62.8427 372.073 64.08C370.836 68.6453 371.305 71.7173 373.481 73.296C374.377 73.936 375.316 74.256 376.297 74.256C377.321 74.2133 378.132 74 378.729 73.616C379.369 73.232 379.988 72.8693 380.585 72.528C381.182 72.1867 381.865 71.952 382.633 71.824C383.444 71.6533 384.425 71.76 385.577 72.144C386.772 72.4853 387.412 72.9547 387.497 73.552C387.582 74.1493 387.582 74.768 387.497 75.408C387.412 76.048 387.39 76.624 387.433 77.136C387.518 77.648 387.988 77.968 388.841 78.096C389.652 79.12 389.14 80.3573 387.305 81.808C386.836 82.192 386.388 82.5547 385.961 82.896C382.292 85.2427 378.388 86.544 374.249 86.8C371.646 86.9707 368.873 86.5013 365.929 85.392C361.534 83.728 359.06 79.9947 358.505 74.192C357.78 68.816 358.462 63.248 360.553 57.488C362.302 52.624 364.948 48.1227 368.489 43.984C371.689 40.1867 374.846 37.712 377.961 36.56C381.673 34.64 385.684 33.8933 389.993 34.32C394.558 34.9173 397.545 36.8587 398.953 40.144C400.361 43.4293 400.126 47.376 398.249 51.984C397.609 53.6053 396.393 54.8853 394.601 55.824C393.065 56.6773 391.401 57.104 389.609 57.104C387.817 57.104 386.665 56.5493 386.153 55.44C385.641 54.288 385.62 52.88 386.089 51.216Z" fill="#212121"/>
<path d="M405.561 37.648C406.371 35.6853 407.523 34.9813 409.017 35.536C409.443 34.5973 409.806 34 410.105 33.744C410.446 33.488 410.787 33.296 411.129 33.168C411.47 32.9973 411.833 32.8267 412.217 32.656C412.601 32.4853 413.198 32.336 414.009 32.208C414.819 32.08 415.715 32.016 416.697 32.016C417.678 31.9733 418.659 32.016 419.641 32.144C420.665 32.272 421.518 32.5493 422.201 32.976C423.865 33.9573 424.227 35.536 423.289 37.712C423.374 37.6693 423.353 37.712 423.225 37.84L422.649 38.928L422.201 39.504C421.987 39.7173 421.326 41.0187 420.217 43.408C419.321 45.1147 418.403 46.8 417.465 48.464C415.929 51.3227 414.99 53.1573 414.649 53.968C416.142 53.1573 417.87 51.984 419.833 50.448C423.545 47.5893 425.913 45.8827 426.937 45.328C427.961 44.7733 428.665 44.432 429.049 44.304C429.475 44.176 429.881 44.1547 430.265 44.24C430.649 44.2827 431.054 44.3893 431.481 44.56L433.081 45.2C434.105 45.5413 434.659 46.7787 434.745 48.912C434.787 51.0027 434.361 52.5813 433.465 53.648C429.582 58.6827 425.209 62.0533 420.345 63.76C418.851 64.3147 417.315 64.784 415.737 65.168C417.998 65.424 420.153 66.9173 422.201 69.648C423.865 71.8667 425.059 74.1493 425.785 76.496C426.553 78.8427 427.15 80.592 427.577 81.744C428.003 82.8533 428.174 83.7067 428.089 84.304C428.046 84.944 427.683 85.4133 427.001 85.712C426.361 86.0533 425.251 86.3733 423.673 86.672C422.947 86.8 421.454 85.9467 419.193 84.112C418.211 83.3013 417.166 82.4267 416.057 81.488C414.947 80.5067 413.838 79.5893 412.729 78.736C410.169 76.7307 408.377 75.6853 407.353 75.6C407.267 75.6 407.097 75.5573 406.841 75.472L405.689 78.352C405.091 79.76 404.473 81.2533 403.833 82.832C403.235 84.368 402.51 85.7547 401.657 86.992C400.334 87.888 398.798 88.2507 397.049 88.08C395.043 87.8667 393.721 87.056 393.081 85.648C392.654 84.3253 393.358 80.4427 395.193 74C396.43 69.4773 397.497 65.5093 398.393 62.096C399.289 58.6827 400.057 55.8667 400.697 53.648C401.337 51.3867 401.806 49.6373 402.105 48.4C402.403 47.12 402.702 45.8827 403.001 44.688C403.726 41.9147 404.579 39.568 405.561 37.648Z" fill="#212121"/>
</g>
<path d="M78.6646 86.8C76.4886 86.8853 74.4833 86.608 72.6486 85.968C70.8566 85.3707 69.3846 84.5387 68.2326 83.472C67.1233 82.4053 66.4193 81.168 66.1206 79.76C65.8219 78.3093 66.0779 76.8373 66.8886 75.344C67.9979 73.552 70.2166 73.0187 73.5446 73.744C76.0619 74.256 77.7899 74.5333 78.7286 74.576C79.7099 74.6187 80.5419 74.4907 81.2246 74.192C84.3393 73.168 86.0886 72.0587 86.4726 70.864C86.7286 69.968 86.1739 68.9227 84.8086 67.728C84.2539 67.216 83.6353 66.704 82.9526 66.192C82.2699 65.68 81.6939 65.168 81.2246 64.656C79.0913 63.0773 77.4059 61.264 76.1686 59.216C74.9739 57.1253 74.4833 54.864 74.6966 52.432C74.9099 50 75.3153 47.9947 75.9126 46.416C76.5099 44.7947 77.2566 43.3653 78.1526 42.128C79.7313 39.952 81.7793 38.1813 84.2966 36.816C87.1979 35.3227 89.5233 34.3627 91.2726 33.936C94.7286 33.168 98.2273 33.104 101.769 33.744C102.963 33.9573 103.987 34.3627 104.841 34.96C105.694 35.5573 106.547 36.176 107.401 36.816C108.894 38.3093 109.257 39.824 108.489 41.36C108.19 42.0427 107.721 42.5973 107.081 43.024C106.441 43.4507 105.758 43.6853 105.033 43.728C105.118 44.88 104.905 45.7333 104.393 46.288C103.411 47.2693 101.705 47.9093 99.2726 48.208C95.7739 47.952 93.4059 48.144 92.1686 48.784C90.7179 49.552 90.1846 51.216 90.5686 53.776C90.6539 54.3307 90.9953 54.9067 91.5926 55.504C92.2326 56.1013 92.9579 56.7413 93.7686 57.424C94.6219 58.1067 95.4966 58.8747 96.3926 59.728C97.3313 60.5813 98.142 61.5627 98.8246 62.672C101.214 66.5973 101.022 71.184 98.2486 76.432C96.2006 80.3573 92.702 83.3013 87.7526 85.264C85.1926 86.288 82.1633 86.8 78.6646 86.8Z" stroke="white" stroke-width="4" mask="url(#path-2-outside-1_136_3)"/>
<path d="M125.625 66.704C124.473 70.032 123.3 73.232 122.105 76.304C120.91 79.376 119.908 81.7013 119.097 83.28C118.329 84.9013 117.646 86.0107 117.049 86.608C116.452 87.2053 115.833 87.6107 115.193 87.824C114.596 88.0373 113.977 88.1227 113.337 88.08C112.74 88.0373 112.121 87.9947 111.481 87.952C107.897 87.3973 106.788 84.816 108.153 80.208C109.049 76.5387 109.774 73.552 110.329 71.248C110.884 68.9013 111.332 66.9813 111.673 65.488C112.057 63.952 112.377 62.6933 112.633 61.712C112.889 60.688 113.166 59.6853 113.465 58.704C113.764 57.7227 114.126 56.6133 114.553 55.376C115.022 54.1387 115.62 52.496 116.345 50.448C114.724 50.6613 113.273 50.4907 111.993 49.936C110.116 49.1253 109.348 47.376 109.689 44.688C109.86 43.4507 110.521 42.2987 111.673 41.232C112.27 40.6773 112.974 40.08 113.785 39.44C115.449 38.1173 118.756 36.7093 123.705 35.216C128.825 33.68 133.22 32.9547 136.889 33.04C137.87 32.8693 138.873 32.9973 139.897 33.424C140.964 33.808 141.817 34.3413 142.457 35.024C143.097 35.7067 143.417 36.4533 143.417 37.264C143.46 38.0747 142.948 38.8 141.881 39.44C141.369 39.7813 141.006 40.3573 140.793 41.168C140.58 41.936 140.345 42.768 140.089 43.664C139.833 44.5173 139.449 45.3067 138.937 46.032C138.468 46.7573 137.7 47.184 136.633 47.312C136.078 47.6107 135.289 47.824 134.265 47.952C133.284 48.08 132.622 48.1867 132.281 48.272C131.982 48.3147 131.812 48.4213 131.769 48.592C131.001 50.8533 130.084 53.6053 129.017 56.848C127.95 60.048 126.82 63.3333 125.625 66.704ZM116.985 49.744C116.9 49.744 116.857 49.7653 116.857 49.808C116.857 49.808 116.9 49.808 116.985 49.808V49.744Z" stroke="white" stroke-width="4" mask="url(#path-2-outside-1_136_3)"/>
<path d="M170.87 39.696C172.321 40.464 173.238 41.5947 173.622 43.088C172.769 47.8667 172.001 52.624 171.318 57.36C170.635 62.0533 169.974 66 169.334 69.2C168.694 72.3573 168.246 74.7253 167.99 76.304C167.777 77.8827 167.521 79.4613 167.222 81.04L166.838 82.384C166.753 82.8533 166.667 83.28 166.582 83.664C166.497 84.0907 166.411 84.5387 166.326 85.008C165.131 86.3733 163.51 87.056 161.462 87.056C159.286 87.056 157.558 86.5013 156.278 85.392C155.51 84.7947 155.382 83.536 155.894 81.616C156.107 80.848 156.235 79.8667 156.278 78.672C156.363 77.4347 156.449 76.4107 156.534 75.6V75.472C155.254 75.9413 154.102 76.56 153.078 77.328C152.054 78.0533 151.414 78.5227 151.158 78.736C150.902 78.9067 150.561 79.056 150.134 79.184C149.707 79.2693 149.323 79.3333 148.982 79.376C148.171 79.4187 147.617 79.5467 147.318 79.76C144.843 84.1973 142.625 86.672 140.662 87.184C139.425 87.568 138.187 87.6533 136.95 87.44C135.713 87.2693 134.731 86.544 134.006 85.264C132.641 83.984 132.982 80.4853 135.03 74.768C136.139 71.7387 137.718 68.112 139.766 63.888C141.857 59.6213 143.862 55.9093 145.782 52.752C149.921 45.968 154.465 40.2507 159.414 35.6C160.225 35.2587 161.099 34.8747 162.038 34.448C162.977 33.9787 163.894 33.7227 164.79 33.68C165.729 33.6373 166.689 33.744 167.67 34C168.651 34.256 169.483 34.64 170.166 35.152C171.745 36.3467 171.979 37.8613 170.87 39.696ZM157.174 56.528C156.278 59.088 155.382 61.456 154.486 63.632C153.59 65.7653 152.822 67.6427 152.182 69.264L157.238 69.072C157.579 66.3413 157.963 63.632 158.39 60.944C158.817 58.256 159.222 55.568 159.606 52.88L157.174 56.528ZM155.446 69.328C156.043 69.328 156.641 69.2853 157.238 69.2V69.136C156.683 69.1787 156.171 69.2213 155.702 69.264C155.233 69.3067 155.147 69.328 155.446 69.328Z" stroke="white" stroke-width="4" mask="url(#path-2-outside-1_136_3)"/>
<path d="M182.803 83.28C182.419 84.9867 181.096 86.032 178.835 86.416C176.744 86.8 174.76 86.5653 172.883 85.712C170.792 84.816 169.875 83.5573 170.131 81.936C169.875 79.4613 171.176 74.0853 174.035 65.808C178.302 53.392 182.568 44.5173 186.835 39.184C187.944 37.8187 188.883 36.944 189.651 36.56C190.462 36.1333 191.379 35.7493 192.403 35.408C193.427 35.0667 194.494 34.7467 195.603 34.448C197.822 33.8507 199.912 33.4453 201.875 33.232C203.88 32.976 205.672 33.2107 207.251 33.936C208.83 34.6187 210.046 35.6427 210.899 37.008C211.795 38.3733 212.35 39.9947 212.563 41.872C212.776 43.7067 212.712 45.648 212.371 47.696C212.03 49.7013 211.411 51.7493 210.515 53.84C209.619 55.888 208.488 57.808 207.123 59.6C204.136 63.5253 200.638 66.064 196.627 67.216L197.267 68.304C197.822 69.1573 198.483 70.096 199.251 71.12C200.062 72.144 200.851 73.1893 201.619 74.256C202.43 75.3227 203.155 76.3893 203.795 77.456C204.435 78.5227 204.904 79.5253 205.203 80.464C205.886 82.5547 205.352 84.0693 203.603 85.008C202.195 85.8613 201.086 86.0747 200.275 85.648C199.934 85.4347 199.592 85.1573 199.251 84.816C198.91 84.5173 198.44 84.2613 197.843 84.048C195.326 84.7733 193.406 84.1333 192.083 82.128C191.272 80.848 190.654 79.6747 190.227 78.608C189.8 77.5413 189.438 76.6453 189.139 75.92C188.371 74.3413 187.496 72.976 186.515 71.824C186.046 72.976 185.512 74.448 184.915 76.24C184.19 78.5013 183.379 80.848 182.483 83.28H182.803ZM195.731 46.032C194.92 47.8667 194.366 49.1467 194.067 49.872C193.47 51.3227 192.808 52.9227 192.083 54.672C191.955 55.6107 191.848 56.272 191.763 56.656L192.659 55.76L193.747 55.248C194.515 54.8213 195.219 54.4373 195.859 54.096C196.499 53.7547 197.075 53.328 197.587 52.816C198.568 51.8347 199.422 50.2347 200.147 48.016C200.147 47.5893 200.211 47.1627 200.339 46.736C200.51 46.3093 200.616 45.8827 200.659 45.456C200.83 44.5173 200.446 43.856 199.507 43.472C198.654 43.3867 197.587 44.0907 196.307 45.584C196.051 45.8827 195.859 46.032 195.731 46.032Z" stroke="white" stroke-width="4" mask="url(#path-2-outside-1_136_3)"/>
<path d="M219.477 86.8C217.301 86.8853 215.296 86.608 213.461 85.968C211.669 85.3707 210.197 84.5387 209.045 83.472C207.936 82.4053 207.232 81.168 206.933 79.76C206.634 78.3093 206.89 76.8373 207.701 75.344C208.81 73.552 211.029 73.0187 214.357 73.744C216.874 74.256 218.602 74.5333 219.541 74.576C220.522 74.6187 221.354 74.4907 222.037 74.192C225.152 73.168 226.901 72.0587 227.285 70.864C227.541 69.968 226.986 68.9227 225.621 67.728C225.066 67.216 224.448 66.704 223.765 66.192C223.082 65.68 222.506 65.168 222.037 64.656C219.904 63.0773 218.218 61.264 216.981 59.216C215.786 57.1253 215.296 54.864 215.509 52.432C215.722 50 216.128 47.9947 216.725 46.416C217.322 44.7947 218.069 43.3653 218.965 42.128C220.544 39.952 222.592 38.1813 225.109 36.816C228.01 35.3227 230.336 34.3627 232.085 33.936C235.541 33.168 239.04 33.104 242.581 33.744C243.776 33.9573 244.8 34.3627 245.653 34.96C246.506 35.5573 247.36 36.176 248.213 36.816C249.706 38.3093 250.069 39.824 249.301 41.36C249.002 42.0427 248.533 42.5973 247.893 43.024C247.253 43.4507 246.57 43.6853 245.845 43.728C245.93 44.88 245.717 45.7333 245.205 46.288C244.224 47.2693 242.517 47.9093 240.085 48.208C236.586 47.952 234.218 48.144 232.981 48.784C231.53 49.552 230.997 51.216 231.381 53.776C231.466 54.3307 231.808 54.9067 232.405 55.504C233.045 56.1013 233.77 56.7413 234.581 57.424C235.434 58.1067 236.309 58.8747 237.205 59.728C238.144 60.5813 238.954 61.5627 239.637 62.672C242.026 66.5973 241.834 71.184 239.061 76.432C237.013 80.3573 233.514 83.3013 228.565 85.264C226.005 86.288 222.976 86.8 219.477 86.8Z" stroke="white" stroke-width="4" mask="url(#path-2-outside-1_136_3)"/>
<path d="M266.438 66.704C265.286 70.032 264.112 73.232 262.918 76.304C261.723 79.376 260.72 81.7013 259.91 83.28C259.142 84.9013 258.459 86.0107 257.862 86.608C257.264 87.2053 256.646 87.6107 256.006 87.824C255.408 88.0373 254.79 88.1227 254.15 88.08C253.552 88.0373 252.934 87.9947 252.294 87.952C248.71 87.3973 247.6 84.816 248.966 80.208C249.862 76.5387 250.587 73.552 251.142 71.248C251.696 68.9013 252.144 66.9813 252.486 65.488C252.87 63.952 253.19 62.6933 253.446 61.712C253.702 60.688 253.979 59.6853 254.278 58.704C254.576 57.7227 254.939 56.6133 255.366 55.376C255.835 54.1387 256.432 52.496 257.158 50.448C255.536 50.6613 254.086 50.4907 252.806 49.936C250.928 49.1253 250.16 47.376 250.502 44.688C250.672 43.4507 251.334 42.2987 252.486 41.232C253.083 40.6773 253.787 40.08 254.598 39.44C256.262 38.1173 259.568 36.7093 264.518 35.216C269.638 33.68 274.032 32.9547 277.702 33.04C278.683 32.8693 279.686 32.9973 280.71 33.424C281.776 33.808 282.63 34.3413 283.27 35.024C283.91 35.7067 284.23 36.4533 284.23 37.264C284.272 38.0747 283.76 38.8 282.694 39.44C282.182 39.7813 281.819 40.3573 281.606 41.168C281.392 41.936 281.158 42.768 280.902 43.664C280.646 44.5173 280.262 45.3067 279.75 46.032C279.28 46.7573 278.512 47.184 277.446 47.312C276.891 47.6107 276.102 47.824 275.078 47.952C274.096 48.08 273.435 48.1867 273.094 48.272C272.795 48.3147 272.624 48.4213 272.582 48.592C271.814 50.8533 270.896 53.6053 269.83 56.848C268.763 60.048 267.632 63.3333 266.438 66.704ZM257.798 49.744C257.712 49.744 257.67 49.7653 257.67 49.808C257.67 49.808 257.712 49.808 257.798 49.808V49.744Z" stroke="white" stroke-width="4" mask="url(#path-2-outside-1_136_3)"/>
<path d="M287.491 83.28C287.107 84.9867 285.784 86.032 283.523 86.416C281.432 86.8 279.448 86.5653 277.571 85.712C275.48 84.816 274.563 83.5573 274.819 81.936C274.563 79.4613 275.864 74.0853 278.723 65.808C282.989 53.392 287.256 44.5173 291.523 39.184C292.632 37.8187 293.571 36.944 294.339 36.56C295.149 36.1333 296.067 35.7493 297.091 35.408C298.115 35.0667 299.181 34.7467 300.291 34.448C302.509 33.8507 304.6 33.4453 306.563 33.232C308.568 32.976 310.36 33.2107 311.939 33.936C313.517 34.6187 314.733 35.6427 315.587 37.008C316.483 38.3733 317.037 39.9947 317.251 41.872C317.464 43.7067 317.4 45.648 317.059 47.696C316.717 49.7013 316.099 51.7493 315.203 53.84C314.307 55.888 313.176 57.808 311.811 59.6C308.824 63.5253 305.325 66.064 301.315 67.216L301.955 68.304C302.509 69.1573 303.171 70.096 303.939 71.12C304.749 72.144 305.539 73.1893 306.307 74.256C307.117 75.3227 307.843 76.3893 308.483 77.456C309.123 78.5227 309.592 79.5253 309.891 80.464C310.573 82.5547 310.04 84.0693 308.291 85.008C306.883 85.8613 305.773 86.0747 304.963 85.648C304.621 85.4347 304.28 85.1573 303.939 84.816C303.597 84.5173 303.128 84.2613 302.531 84.048C300.013 84.7733 298.093 84.1333 296.771 82.128C295.96 80.848 295.341 79.6747 294.915 78.608C294.488 77.5413 294.125 76.6453 293.827 75.92C293.059 74.3413 292.184 72.976 291.203 71.824C290.733 72.976 290.2 74.448 289.603 76.24C288.877 78.5013 288.067 80.848 287.171 83.28H287.491ZM300.419 46.032C299.608 47.8667 299.053 49.1467 298.755 49.872C298.157 51.3227 297.496 52.9227 296.771 54.672C296.643 55.6107 296.536 56.272 296.451 56.656L297.347 55.76L298.435 55.248C299.203 54.8213 299.907 54.4373 300.547 54.096C301.187 53.7547 301.763 53.328 302.275 52.816C303.256 51.8347 304.109 50.2347 304.835 48.016C304.835 47.5893 304.899 47.1627 305.027 46.736C305.197 46.3093 305.304 45.8827 305.347 45.456C305.517 44.5173 305.133 43.856 304.195 43.472C303.341 43.3867 302.275 44.0907 300.995 45.584C300.739 45.8827 300.547 46.032 300.419 46.032Z" stroke="white" stroke-width="4" mask="url(#path-2-outside-1_136_3)"/>
<path d="M335.493 36.752V36.88C335.493 36.9227 335.493 36.944 335.493 36.944C335.535 36.944 335.557 36.9653 335.557 37.008V37.136H335.621L336.005 38.16C336.431 39.3973 335.322 43.2373 332.677 49.68C329.861 56.5493 328.559 61.904 328.773 65.744C329.242 68.4747 331.525 66.2773 335.621 59.152C338.863 53.6053 341.999 47.5253 345.029 40.912C345.413 40.016 345.818 39.0987 346.245 38.16C346.671 37.1787 347.205 36.368 347.845 35.728C349.253 34.192 350.959 33.7867 352.965 34.512C353.647 33.7013 354.437 33.1467 355.333 32.848C356.271 32.5493 357.146 32.4853 357.957 32.656C358.81 32.8267 359.535 33.232 360.133 33.872C360.73 34.4693 361.05 35.28 361.093 36.304C361.221 37.1573 360.773 39.184 359.749 42.384C358.767 45.584 357.85 48.5067 356.997 51.152C356.143 53.7973 355.269 56.6773 354.373 59.792C352.197 67.1733 350.469 74.128 349.189 80.656C349.146 82.0213 348.549 83.152 347.397 84.048C346.287 84.944 345.029 85.52 343.621 85.776C342.255 86.0747 340.954 86.032 339.717 85.648C338.223 85.2213 337.434 84.1547 337.349 82.448C337.349 81.9787 337.327 81.5093 337.285 81.04C337.37 82.4907 336.325 83.728 334.149 84.752C333.551 85.0507 332.997 85.328 332.485 85.584C329.498 86.48 326.362 86.288 323.077 85.008C321.541 84.368 320.154 83.5147 318.917 82.448C317.722 81.3387 316.89 80.0373 316.421 78.544C314.927 73.7653 315.205 67.4933 317.253 59.728C318.106 56.4 319.151 53.1573 320.389 50C321.626 46.8427 322.522 44.56 323.077 43.152C323.674 41.744 324.101 40.784 324.357 40.272C324.613 39.7173 324.89 39.184 325.189 38.672C325.914 37.2213 326.533 36.24 327.045 35.728L327.813 35.024C327.898 34.9387 327.983 34.896 328.069 34.896C328.154 34.8533 328.261 34.7893 328.389 34.704C328.73 34.4907 329.093 34.3413 329.477 34.256L330.373 34.064H330.757C331.994 33.8933 333.061 34.1493 333.957 34.832C333.957 34.8747 333.999 34.896 334.085 34.896L334.597 35.344L334.789 35.536L334.981 35.792C334.981 35.8347 334.981 35.856 334.981 35.856C335.023 35.856 335.045 35.8773 335.045 35.92L335.109 35.984V36.112C335.151 36.112 335.173 36.1333 335.173 36.176V36.24C335.215 36.2827 335.258 36.304 335.301 36.304V36.368C335.301 36.4107 335.301 36.432 335.301 36.432C335.343 36.432 335.365 36.4533 335.365 36.496C335.365 36.496 335.386 36.5173 335.429 36.56V36.624C335.429 36.6667 335.45 36.7093 335.493 36.752ZM337.221 79.184C337.178 79.2267 337.157 79.3973 337.157 79.696C337.157 79.568 337.178 79.4827 337.221 79.44V79.184Z" stroke="white" stroke-width="4" mask="url(#path-2-outside-1_136_3)"/>
<path d="M386.089 51.216C386.089 49.936 385.641 49.296 384.745 49.296C384.404 49.296 383.998 49.3813 383.529 49.552C383.06 49.7227 382.612 49.872 382.185 50C380.606 50.8533 379.369 51.792 378.473 52.816C377.62 53.7973 376.745 54.9067 375.849 56.144C374.953 57.3813 374.185 58.704 373.545 60.112C372.905 61.52 372.414 62.8427 372.073 64.08C370.836 68.6453 371.305 71.7173 373.481 73.296C374.377 73.936 375.316 74.256 376.297 74.256C377.321 74.2133 378.132 74 378.729 73.616C379.369 73.232 379.988 72.8693 380.585 72.528C381.182 72.1867 381.865 71.952 382.633 71.824C383.444 71.6533 384.425 71.76 385.577 72.144C386.772 72.4853 387.412 72.9547 387.497 73.552C387.582 74.1493 387.582 74.768 387.497 75.408C387.412 76.048 387.39 76.624 387.433 77.136C387.518 77.648 387.988 77.968 388.841 78.096C389.652 79.12 389.14 80.3573 387.305 81.808C386.836 82.192 386.388 82.5547 385.961 82.896C382.292 85.2427 378.388 86.544 374.249 86.8C371.646 86.9707 368.873 86.5013 365.929 85.392C361.534 83.728 359.06 79.9947 358.505 74.192C357.78 68.816 358.462 63.248 360.553 57.488C362.302 52.624 364.948 48.1227 368.489 43.984C371.689 40.1867 374.846 37.712 377.961 36.56C381.673 34.64 385.684 33.8933 389.993 34.32C394.558 34.9173 397.545 36.8587 398.953 40.144C400.361 43.4293 400.126 47.376 398.249 51.984C397.609 53.6053 396.393 54.8853 394.601 55.824C393.065 56.6773 391.401 57.104 389.609 57.104C387.817 57.104 386.665 56.5493 386.153 55.44C385.641 54.288 385.62 52.88 386.089 51.216Z" stroke="white" stroke-width="4" mask="url(#path-2-outside-1_136_3)"/>
<path d="M405.561 37.648C406.371 35.6853 407.523 34.9813 409.017 35.536C409.443 34.5973 409.806 34 410.105 33.744C410.446 33.488 410.787 33.296 411.129 33.168C411.47 32.9973 411.833 32.8267 412.217 32.656C412.601 32.4853 413.198 32.336 414.009 32.208C414.819 32.08 415.715 32.016 416.697 32.016C417.678 31.9733 418.659 32.016 419.641 32.144C420.665 32.272 421.518 32.5493 422.201 32.976C423.865 33.9573 424.227 35.536 423.289 37.712C423.374 37.6693 423.353 37.712 423.225 37.84L422.649 38.928L422.201 39.504C421.987 39.7173 421.326 41.0187 420.217 43.408C419.321 45.1147 418.403 46.8 417.465 48.464C415.929 51.3227 414.99 53.1573 414.649 53.968C416.142 53.1573 417.87 51.984 419.833 50.448C423.545 47.5893 425.913 45.8827 426.937 45.328C427.961 44.7733 428.665 44.432 429.049 44.304C429.475 44.176 429.881 44.1547 430.265 44.24C430.649 44.2827 431.054 44.3893 431.481 44.56L433.081 45.2C434.105 45.5413 434.659 46.7787 434.745 48.912C434.787 51.0027 434.361 52.5813 433.465 53.648C429.582 58.6827 425.209 62.0533 420.345 63.76C418.851 64.3147 417.315 64.784 415.737 65.168C417.998 65.424 420.153 66.9173 422.201 69.648C423.865 71.8667 425.059 74.1493 425.785 76.496C426.553 78.8427 427.15 80.592 427.577 81.744C428.003 82.8533 428.174 83.7067 428.089 84.304C428.046 84.944 427.683 85.4133 427.001 85.712C426.361 86.0533 425.251 86.3733 423.673 86.672C422.947 86.8 421.454 85.9467 419.193 84.112C418.211 83.3013 417.166 82.4267 416.057 81.488C414.947 80.5067 413.838 79.5893 412.729 78.736C410.169 76.7307 408.377 75.6853 407.353 75.6C407.267 75.6 407.097 75.5573 406.841 75.472L405.689 78.352C405.091 79.76 404.473 81.2533 403.833 82.832C403.235 84.368 402.51 85.7547 401.657 86.992C400.334 87.888 398.798 88.2507 397.049 88.08C395.043 87.8667 393.721 87.056 393.081 85.648C392.654 84.3253 393.358 80.4427 395.193 74C396.43 69.4773 397.497 65.5093 398.393 62.096C399.289 58.6827 400.057 55.8667 400.697 53.648C401.337 51.3867 401.806 49.6373 402.105 48.4C402.403 47.12 402.702 45.8827 403.001 44.688C403.726 41.9147 404.579 39.568 405.561 37.648Z" stroke="white" stroke-width="4" mask="url(#path-2-outside-1_136_3)"/>
<defs>
<filter id="filter0_i_136_3" x="21.3394" y="42.8837" width="459.161" height="40.2327" filterUnits="userSpaceOnUse" color-interpolation-filters="sRGB">
<feFlood flood-opacity="0" result="BackgroundImageFix"/>
<feBlend mode="normal" in="SourceGraphic" in2="BackgroundImageFix" result="shape"/>
<feColorMatrix in="SourceAlpha" type="matrix" values="0 0 0 0 0 0 0 0 0 0 0 0 0 0 0 0 0 0 127 0" result="hardAlpha"/>
<feOffset dx="-4" dy="6"/>
<feGaussianBlur stdDeviation="3.5"/>
<feComposite in2="hardAlpha" operator="arithmetic" k2="-1" k3="1"/>
<feColorMatrix type="matrix" values="0 0 0 0 1 0 0 0 0 1 0 0 0 0 1 0 0 0 0.5 0"/>
<feBlend mode="normal" in2="shape" result="effect1_innerShadow_136_3"/>
</filter>
<filter id="filter1_i_136_3" x="62.9998" y="30" width="373.748" height="64.1208" filterUnits="userSpaceOnUse" color-interpolation-filters="sRGB">
<feFlood flood-opacity="0" result="BackgroundImageFix"/>
<feBlend mode="normal" in="SourceGraphic" in2="BackgroundImageFix" result="shape"/>
<feColorMatrix in="SourceAlpha" type="matrix" values="0 0 0 0 0 0 0 0 0 0 0 0 0 0 0 0 0 0 127 0" result="hardAlpha"/>
<feOffset dx="-1" dy="6"/>
<feGaussianBlur stdDeviation="2"/>
<feComposite in2="hardAlpha" operator="arithmetic" k2="-1" k3="1"/>
<feColorMatrix type="matrix" values="0 0 0 0 1 0 0 0 0 1 0 0 0 0 1 0 0 0 0.4 0"/>
<feBlend mode="normal" in2="shape" result="effect1_innerShadow_136_3"/>
</filter>
<linearGradient id="paint0_linear_136_3" x1="31" y1="40" x2="94" y2="80" gradientUnits="userSpaceOnUse">
<stop stop-color="#6265FF"/>
<stop offset="1" stop-color="#E8A5FF"/>
</linearGradient>
</defs>
</svg>
